<svg xmlns="http://www.w3.org/2000/svg" aria-label="Bati logo" width="512" height="512" fill="none" viewBox="0 0 512 512"><path fill="#b34d3a" d="m196 375.2 16-10.8v65.8l-16 10.5z"/><path fill="#e67a62" d="m92 372 16-10.5 104 2.9-16 10.8z"/><path fill="url(#a)" d="m92 372 104 3.2v65.5l-104-5.1z"/><path fill="#fff" d="m92 372 104 3.2-3 7.4-98-3.3z" opacity=".1"/><path fill="#a8462f" d="m308 378.7 16-11.1v67.8l-16 10.9z"/><path fill="#e07058" d="m204 375.5 16-10.8 104 2.9-16 11.1z"/><path fill="url(#b)" d="m204 375.5 104 3.2v67.6l-104-5.2z"/><path fill="#fff" d="m204 375.5 104 3.2-3 7.6-98-3.2z" opacity=".1"/><path fill="#bb5440" d="m420 382.2 16-11.4v69.8l-16 11.2z"/><path fill="#ec8068" d="m316 379 16-11.2 104 3-16 11.4z"/><path fill="url(#c)" d="m316 379 104 3.2v69.6l-104-5.1z"/><path fill="#fff" d="m316 379 104 3.2-3 7.9-98-3.3z" opacity=".1"/><path fill="#bb5440" d="m140 301.6 16-10.9v64.8l-16 10.6z"/><path fill="#ec8068" d="m36 300.4 16-10.6 104 .9-16 10.9z"/><path fill="url(#d)" d="m36 300.4 104 1.2v64.5L36 363z"/><path fill="#fff" d="m36 300.4 104 1.2-3 7.3-98-1.3z" opacity=".1"/><path fill="#b34d3a" d="m252 302.9 16-11.3v66.8l-16 11z"/><path fill="#e67a62" d="m148 301.7 16-11 104 .9-16 11.3z"/><path fill="url(#e)" d="m148 301.7 104 1.2v66.5l-104-3.1z"/><path fill="#fff" d="m148 301.7 104 1.2-3 7.5-98-1.3z" opacity=".1"/><path fill="#a8462f" d="m364 304.1 16-11.6v68.8l-16 11.4z"/><path fill="#e07058" d="m260 302.9 16-11.3 104 .9-16 11.6z"/><path fill="url(#f)" d="m260 302.9 104 1.2v68.6l-104-3.1z"/><path fill="#fff" d="m260 302.9 104 1.2-3 7.8-98-1.3z" opacity=".1"/><path fill="#bb5440" d="m476 305 16-12v70l-16 12z"/><path fill="#ec8068" d="m372 304.2 16-11.7 104 .5-16 12z"/><path fill="url(#g)" d="m372 304.2 104 .8v70l-104-2.1z"/><path fill="#fff" d="m372 304.2 104 .8-3 8-98-.9z" opacity=".1"/><path fill="#a8462f" d="m196 229.3 16-11.5v65.8l-16 11.1z"/><path fill="#e07058" d="m92 230.2 16-11.1 104-1.3-16 11.5z"/><path fill="url(#h)" d="m92 230.2 104-.9v65.4l-104-.9z"/><path fill="#fff" d="m92 230.2 104-.9-3 7.5-98 .6z" opacity=".1"/><path fill="#bb5440" d="m308 228.2 16-11.7v67.8l-16 11.5z"/><path fill="#ec8068" d="m204 229.2 16-11.5 104-1.2-16 11.7z"/><path fill="url(#i)" d="m204 229.2 104-1v67.6l-104-1z"/><path fill="#fff" d="m204 229.2 104-1-3 7.8-98 .7z" opacity=".1"/><path fill="#b34d3a" d="m420 227.2 16-12.1V285l-16 11.8z"/><path fill="#e67a62" d="m316 228.2 16-11.8 104-1.3-16 12.1z"/><path fill="url(#j)" d="m316 228.2 104-1v69.6l-104-1z"/><path fill="#fff" d="m316 228.2 104-1-3 8-98 .7z" opacity=".1"/><path fill="#b34d3a" d="m140 157.9 16-11.6v64.8l-16 11.3z"/><path fill="#e67a62" d="m36 161 16-11.3 104-3.4-16 11.6z"/><path fill="url(#k)" d="m36 161 104-3.1v64.5l-104 1.2z"/><path fill="#fff" d="m36 161 104-3.1-3 7.5-98 2.6z" opacity=".1"/><path fill="#a8462f" d="m252 154.6 16-11.9v66.8l-16 11.6z"/><path fill="#e07058" d="m148 157.7 16-11.6 104-3.4-16 11.9z"/><path fill="url(#l)" d="m148 157.7 104-3.1v66.5l-104 1.2z"/><path fill="#fff" d="m148 157.7 104-3.1-3 7.7-98 2.7z" opacity=".1"/><path fill="#bb5440" d="m364 151.3 16-12.2v68.8l-16 12z"/><path fill="#ec8068" d="m260 154.4 16-12 104-3.3-16 12.2z"/><path fill="url(#m)" d="m260 154.4 104-3.1v68.6l-104 1.2z"/><path fill="#fff" d="m260 154.4 104-3.1-3 8-98 2.6z" opacity=".1"/><path fill="#b34d3a" d="m476 149 16-12v70l-16 12z"/><path fill="#e67a62" d="m372 151.1 16-12.3 104-1.8-16 12z"/><path fill="url(#n)" d="m372 151.1 104-2.1v70l-104 .8z"/><path fill="#fff" d="m372 151.1 104-2.1-3 8-98 1.9z" opacity=".1"/><path fill="#bb5440" d="m196 83.3 16-12.1V137l-16 11.8z"/><path fill="#ec8068" d="m92 88.4 16-11.7 104-5.5-16 12.1z"/><path fill="url(#o)" d="m92 88.4 104-5.1v65.5L92 152z"/><path fill="#fff" d="m92 88.4 104-5.1-3 7.6-98 4.7z" opacity=".1"/><path fill="#b34d3a" d="m308 77.7 16-12.4v67.8l-16 12.2z"/><path fill="#e67a62" d="m204 82.9 16-12.1 104-5.5-16 12.4z"/><path fill="url(#p)" d="m204 82.9 104-5.2v67.6l-104 3.2z"/><path fill="#fff" d="m204 82.9 104-5.2-3 7.9-98 4.7z" opacity=".1"/><path fill="#a8462f" d="m420 72.2 16-12.8v69.9l-16 12.5z"/><path fill="#e07058" d="m316 77.3 16-12.4 104-5.5-16 12.8z"/><path fill="url(#q)" d="m316 77.3 104-5.1v69.6L316 145z"/><path fill="#fff" d="m316 77.3 104-5.1-3 8.1-98 4.6z" opacity=".1"/><g filter="url(#r)"><path fill="#000" d="m151.89 358.297-16.452 17.389Z"/><path stroke="url(#s)" stroke-linecap="round" stroke-linejoin="round" stroke-width="5.379" d="M142.308 358.297c11.134 11.765 23.982 20.916 29.376 20.916 5.387 0 .922-9.151-10.212-20.916-11.134-11.764-23.982-20.916-29.369-20.916-5.394 0-.93 9.152 10.205 20.916"/><path fill="url(#t)" d="m128.453 336.113-16.074 17.004c-.899.722-1.461 1.831-1.621 2.837-.334 2.104.35 3.92 1.381 6.033 2.062 4.227 6.087 9.544 11.766 15.548 5.683 6.005 11.775 11.334 17.23 15.219 5.454 3.884 9.889 6.543 14.107 6.543 1.054 0 2.178-.229 3.152-.945.31-.228.578-.509.81-.811l16.134-17.064z"/><path fill="url(#u)" d="M260.721 200.225 132.418 335.836c-2.761 1.814 1.862 10.169 11.692 20.561 11.134 11.765 23.991 20.907 29.386 20.907 1.01 0 1.672-.315 2.011-.916l128.203-135.51z"/><path fill="#7d7d7d" d="m183.877 202.623 2.827 19.295 12.818-8.153z"/><path fill="#a3a3a3" d="m266.128 115.691-82.251 86.932 15.645 11.142 82.244-86.939z"/><path fill="#a3a3a3" d="m313.64 334.391-15.638 11.135-116.953-123.608 15.645-11.142z"/><path fill="#a3a3a3" d="m398.719 250.442-82.252 86.939-116.945-123.616 82.244-86.939z"/><path fill="#dcdbdb" d="M266.128 115.691h21.078l-5.44 11.135z"/><path fill="#a3a3a3" d="m281.55 115.691-3.98 8.146 119.781 126.605 3.973-8.153zM144.049 202.623h39.828v16.306h-39.828zM144.049 202.623h39.828l82.251-86.932h-39.827z"/><path fill="#a3a3a3" d="M300.83 342.537h-39.827L144.049 218.929h39.828z"/><path fill="url(#v)" d="M401.324 236.31h-39.827L244.551 112.702h39.827z"/><path fill="#ababab" d="M319.072 345.526h-39.819l82.244-86.932h39.827z"/><path fill="#d6d6d6" d="M144.049 202.623v16.306l3.981-8.153z"/><path fill="#dcdbdb" d="M401.324 258.595h-39.827V236.31h39.827z"/><path fill="#d6d6d6" d="m226.301 115.691-82.252 86.932 3.981 8.153 82.251-86.939z"/><path fill="url(#w)" d="m146.662 210.776-2.613 8.153 116.954 123.608 2.605-8.146z"/><path fill="#dedede" d="m226.301 115.691 18.25-2.989-15.637 11.135z"/><path fill="#7d7d7d" d="m279.253 345.526-18.25-2.989 2.605-8.146z"/><path fill="url(#x)" d="m228.914 123.837-82.252 86.939 116.946 123.615 82.252-86.939z"/><path fill="url(#y)" stroke="url(#z)" stroke-linecap="round" stroke-linejoin="round" stroke-width="4.611" d="m257.069 201.962-14.039 14.884-29.2-36.93-.008.008-.53-.7-2.375-.684-.645.485.261 1.898 22.415 72.592 1.521 1.745 1.652 1.613 13.909-15.015 29.208 36.923v-.015l.53.706 2.374.684.646-.484-.262-1.898-21.777-74.905-1.521-1.745z"/><path fill="url(#A)" d="m361.497 236.31-15.637 11.142-116.946-123.615 15.637-11.135z"/><path fill="#a3a3a3" d="m361.497 258.594-82.244 86.932-15.645-11.135 82.252-86.939z"/><path fill="#dcdbdb" d="M361.497 258.595V236.31l-15.637 11.142z"/></g><defs><linearGradient id="a" x1="92" x2="103.734" y1="372" y2="443.056" gradientUnits="userSpaceOnUse"><stop stop-color="#dd6c54"/><stop offset="1" stop-color="#cd5942"/></linearGradient><linearGradient id="b" x1="204" x2="216.442" y1="375.5" y2="448.607" gradientUnits="userSpaceOnUse"><stop stop-color="#d76349"/><stop offset="1" stop-color="#c2503b"/></linearGradient><linearGradient id="c" x1="316" x2="329.134" y1="379" y2="454.052" gradientUnits="userSpaceOnUse"><stop stop-color="#e2745c"/><stop offset="1" stop-color="#d35f49"/></linearGradient><linearGradient id="d" x1="36" x2="46.756" y1="300.4" y2="368.507" gradientUnits="userSpaceOnUse"><stop stop-color="#e2745c"/><stop offset="1" stop-color="#d35f49"/></linearGradient><linearGradient id="e" x1="148" x2="159.404" y1="301.7" y2="371.775" gradientUnits="userSpaceOnUse"><stop stop-color="#dd6c54"/><stop offset="1" stop-color="#cd5942"/></linearGradient><linearGradient id="f" x1="260" x2="272.103" y1="302.9" y2="375.032" gradientUnits="userSpaceOnUse"><stop stop-color="#d76349"/><stop offset="1" stop-color="#c2503b"/></linearGradient><linearGradient id="g" x1="372" x2="384.442" y1="304.2" y2="377.307" gradientUnits="userSpaceOnUse"><stop stop-color="#e2745c"/><stop offset="1" stop-color="#d35f49"/></linearGradient><linearGradient id="h" x1="92" x2="102.661" y1="229.3" y2="297.112" gradientUnits="userSpaceOnUse"><stop stop-color="#d76349"/><stop offset="1" stop-color="#c2503b"/></linearGradient><linearGradient id="i" x1="204" x2="215.371" y1="228.2" y2="298.177" gradientUnits="userSpaceOnUse"><stop stop-color="#e2745c"/><stop offset="1" stop-color="#d35f49"/></linearGradient><linearGradient id="j" x1="316" x2="328.036" y1="227.2" y2="299.136" gradientUnits="userSpaceOnUse"><stop stop-color="#dd6c54"/><stop offset="1" stop-color="#cd5942"/></linearGradient><linearGradient id="k" x1="36" x2="46.756" y1="157.9" y2="226.007" gradientUnits="userSpaceOnUse"><stop stop-color="#dd6c54"/><stop offset="1" stop-color="#cd5942"/></linearGradient><linearGradient id="l" x1="148" x2="159.404" y1="154.6" y2="224.675" gradientUnits="userSpaceOnUse"><stop stop-color="#d76349"/><stop offset="1" stop-color="#c2503b"/></linearGradient><linearGradient id="m" x1="260" x2="272.103" y1="151.3" y2="223.432" gradientUnits="userSpaceOnUse"><stop stop-color="#e2745c"/><stop offset="1" stop-color="#d35f49"/></linearGradient><linearGradient id="n" x1="372" x2="384.442" y1="149" y2="222.107" gradientUnits="userSpaceOnUse"><stop stop-color="#dd6c54"/><stop offset="1" stop-color="#cd5942"/></linearGradient><linearGradient id="o" x1="92" x2="103.734" y1="83.3" y2="154.356" gradientUnits="userSpaceOnUse"><stop stop-color="#e2745c"/><stop offset="1" stop-color="#d35f49"/></linearGradient><linearGradient id="p" x1="204" x2="216.442" y1="77.7" y2="150.807" gradientUnits="userSpaceOnUse"><stop stop-color="#dd6c54"/><stop offset="1" stop-color="#cd5942"/></linearGradient><linearGradient id="q" x1="316" x2="329.134" y1="72.2" y2="147.252" gradientUnits="userSpaceOnUse"><stop stop-color="#d76349"/><stop offset="1" stop-color="#c2503b"/></linearGradient><linearGradient id="s" x1="127.116" x2="176.664" y1="358.297" y2="358.297" gradientUnits="userSpaceOnUse"><stop offset=".175" stop-color="#d0d0d0"/><stop offset=".793" stop-color="#9b9b9b"/></linearGradient><linearGradient id="t" x1="111.99" x2="173.723" y1="336.117" y2="399.435" gradientUnits="userSpaceOnUse"><stop offset=".275" stop-color="#d0d0d0"/><stop offset=".714" stop-color="#9b9b9b"/></linearGradient><linearGradient id="u" x1="132.195" x2="308.631" y1="200.225" y2="371.656" gradientUnits="userSpaceOnUse"><stop offset=".409" stop-color="#f5ae56"/><stop offset=".59" stop-color="#c76125"/></linearGradient><linearGradient id="v" x1="244.551" x2="364.751" y1="112.699" y2="265.15" gradientUnits="userSpaceOnUse"><stop offset=".22" stop-color="#cfcfcf"/><stop offset=".72" stop-color="#a8a8a8"/></linearGradient><linearGradient id="w" x1="144.053" x2="275.192" y1="210.775" y2="329.771" gradientUnits="userSpaceOnUse"><stop offset=".22" stop-color="#b8b8b8"/><stop offset=".72" stop-color="#7d7d7d"/></linearGradient><linearGradient id="x" x1="146.662" x2="356.893" y1="123.836" y2="322.731" gradientUnits="userSpaceOnUse"><stop offset=".22" stop-color="#d6d6d6"/><stop offset=".72" stop-color="#b5b5b5"/></linearGradient><linearGradient id="y" x1="207.967" x2="308.975" y1="176.229" y2="249.57" gradientUnits="userSpaceOnUse"><stop offset=".35" stop-color="#ff0"/><stop offset=".8" stop-color="#ffc300"/></linearGradient><linearGradient id="z" x1="207.967" x2="308.975" y1="176.229" y2="249.57" gradientUnits="userSpaceOnUse"><stop offset=".35" stop-color="#ff0"/><stop offset=".8" stop-color="#ffc300"/></linearGradient><linearGradient id="A" x1="228.914" x2="363.645" y1="112.709" y2="245.275" gradientUnits="userSpaceOnUse"><stop offset=".22" stop-color="#e0e0e0"/><stop offset=".72" stop-color="#ccc"/></linearGradient><filter id="r" width="310.651" height="321.595" x="105.673" y="112.702" color-interpolation-filters="sRGB" filterUnits="userSpaceOnUse"><feFlood flood-opacity="0" result="BackgroundImageFix"/><feColorMatrix in="SourceAlpha" result="hardAlpha" values="0 0 0 0 0 0 0 0 0 0 0 0 0 0 0 0 0 0 127 0"/><feOffset dx="5" dy="25"/><feGaussianBlur stdDeviation="5"/><feComposite in2="hardAlpha" operator="out"/><feColorMatrix values="0 0 0 0 0 0 0 0 0 0 0 0 0 0 0 0 0 0 0.25 0"/><feBlend in2="BackgroundImageFix" result="effect1_dropShadow_1_106"/><feBlend in="SourceGraphic" in2="effect1_dropShadow_1_106" result="shape"/></filter></defs></svg>